<svg id="Capa_1" enable-background="new 0 0 497 497" height="512" viewBox="0 0 497 497" width="512" xmlns="http://www.w3.org/2000/svg"><g><path d="m452 407c-6.947 0-13.525 1.577-19.399 4.388l-23.525-23.525c22.685-27.42 36.318-62.601 36.318-100.968 0-82.477-62.999-150.23-143.5-157.789v-33.282c17.476-6.179 30-22.838 30-42.429 0-24.853-20.147-45-45-45s-45 20.147-45 45c0 19.592 12.524 36.251 30 42.429v33.282c-32.509 3.052-62.165 15.914-85.968 35.607l-22.566-22.566c10.478-14.712 16.64-32.71 16.64-52.147 0-49.706-40.294-90-90-90s-90 40.294-90 90 40.294 90 90 90c19.437 0 37.435-6.162 52.148-16.639l22.566 22.566c-19.693 23.804-32.555 53.459-35.607 85.968h-33.283c-6.179-17.476-22.838-30-42.429-30-24.853 0-45 20.147-45 45s20.147 45 45 45c19.592 0 36.251-12.524 42.429-30h33.282c7.558 80.501 75.312 143.5 157.789 143.5 38.367 0 73.549-13.634 100.968-36.318l23.525 23.525c-2.811 5.873-4.388 12.451-4.388 19.398 0 24.853 20.147 45 45 45s45-20.147 45-45-20.147-45-45-45z" fill="#8c98a7"/><g fill="#fff7e8"><circle cx="90" cy="90" r="60"/><circle cx="53.395" cy="286.895" r="15"/><circle cx="286.895" cy="53.395" r="15"/><circle cx="452" cy="452" r="15"/></g><circle cx="90" cy="90" fill="#1e8aff" r="30"/><circle cx="286.895" cy="286.895" fill="#fff7e8" r="128.5"/><path d="m286.895 188.395v90c24.853 0 45-20.147 45-45s-20.148-45-45-45z" fill="#1b74d6"/><path d="m301.895 233.395c0-24.853-6.716-45-15-45-24.853 0-45 20.147-45 45s20.147 45 45 45c8.284 0 15-20.148 15-45z" fill="#1e8aff"/><path d="m234.39 308.395c-16.5 0-30 13.5-30 30v2.316c7.756 11.867 18.005 21.955 30 29.529l30-61.845z" fill="#54a5ff"/><path d="m339.399 308.395h-30l30 61.845c11.995-7.574 22.244-17.662 30-29.529v-2.316c0-16.5-13.5-30-30-30z" fill="#1b74d6"/><path d="m309.399 308.395h-45.009c-16.5 0-30 13.5-30 30v31.845c15.198 9.597 33.2 15.155 52.504 15.155s37.306-5.558 52.504-15.155v-31.845c.001-16.5-13.499-30-29.999-30z" fill="#1e8aff"/></g></svg>